<?xml version="1.0" encoding="UTF-8" standalone="no"?>
<!DOCTYPE svg PUBLIC "-//W3C//DTD SVG 1.1//EN"
 "http://www.w3.org/Graphics/SVG/1.1/DTD/svg11.dtd">
<!-- Generated by graphviz version 2.38.0 (20140413.2041)
 -->
<!-- Title: G Pages: 1 -->
<svg width="1351pt" height="1114pt"
 viewBox="0.00 0.00 1350.60 1114.36" xmlns="http://www.w3.org/2000/svg" xmlns:xlink="http://www.w3.org/1999/xlink">
<g id="graph0" class="graph" transform="scale(1 1) rotate(0) translate(445.108 645.396)">
<title>G</title>
<polygon fill="white" stroke="none" points="-445.108,468.963 -445.108,-645.396 905.496,-645.396 905.496,468.963 -445.108,468.963"/>
<text text-anchor="middle" x="230.194" y="450.563" font-family="Verdana" font-size="7.00" fill="#000000">Generated by Python Call Graph v1.0.1</text>
<text text-anchor="middle" x="230.194" y="458.563" font-family="Verdana" font-size="7.00" fill="#000000">http://pycallgraph.slowchop.com</text>
<!-- __main__ -->
<g id="node1" class="node"><title>__main__</title>
<polygon fill="#e2e5e5" stroke="#e2e5e5" points="-121.5,13 -196.5,13 -196.5,49 -121.5,49 -121.5,13"/>
<text text-anchor="middle" x="-159" y="24.6" font-family="Verdana" font-size="7.00" fill="#000000">__main__</text>
<text text-anchor="middle" x="-159" y="32.6" font-family="Verdana" font-size="7.00" fill="#000000">calls: 1</text>
<text text-anchor="middle" x="-159" y="40.6" font-family="Verdana" font-size="7.00" fill="#000000">time: 0.000000s</text>
</g>
<!-- pywinery.type.iter_all -->
<g id="node2" class="node"><title>pywinery.type.iter_all</title>
<polygon fill="#e0e5e5" stroke="#e0e5e5" points="522.862,25.0105 429.862,25.0105 429.862,61.0105 522.862,61.0105 522.862,25.0105"/>
<text text-anchor="middle" x="476.362" y="36.6105" font-family="Verdana" font-size="7.00" fill="#000000">pywinery.type.iter_all</text>
<text text-anchor="middle" x="476.362" y="44.6105" font-family="Verdana" font-size="7.00" fill="#000000">calls: 1</text>
<text text-anchor="middle" x="476.362" y="52.6105" font-family="Verdana" font-size="7.00" fill="#000000">time: 0.007568s</text>
</g>
<!-- pywinery.legacy_to_bottlespec -->
<g id="node9" class="node"><title>pywinery.legacy_to_bottlespec</title>
<polygon fill="#e2e5e5" stroke="#e2e5e5" points="421.862,-14.85 293.862,-14.85 293.862,21.15 421.862,21.15 421.862,-14.85"/>
<text text-anchor="middle" x="357.862" y="-3.25003" font-family="Verdana" font-size="7.00" fill="#000000">pywinery.legacy_to_bottlespec</text>
<text text-anchor="middle" x="357.862" y="4.74997" font-family="Verdana" font-size="7.00" fill="#000000">calls: 1</text>
<text text-anchor="middle" x="357.862" y="12.75" font-family="Verdana" font-size="7.00" fill="#000000">time: 0.000458s</text>
</g>
<!-- pywinery.type.iter_all&#45;&gt;pywinery.legacy_to_bottlespec -->
<g id="edge1" class="edge"><title>pywinery.type.iter_all&#45;&gt;pywinery.legacy_to_bottlespec</title>
<path fill="none" stroke="#b0b2b2" d="M429.528,27.2566C426.738,26.3181 423.909,25.3667 421.069,24.4113"/>
<polygon fill="#b0b2b2" stroke="#b0b2b2" points="419.765,27.6653 411.402,21.1597 421.996,21.0306 419.765,27.6653"/>
<text text-anchor="middle" x="422.798" y="31.4339" font-family="Verdana" font-size="7.00" fill="#000000">1</text>
</g>
<!-- pywinery.elfarch -->
<g id="node3" class="node"><title>pywinery.elfarch</title>
<polygon fill="#e2e5e5" stroke="#e2e5e5" points="862.859,120.502 787.859,120.502 787.859,156.502 862.859,156.502 862.859,120.502"/>
<text text-anchor="middle" x="825.359" y="132.102" font-family="Verdana" font-size="7.00" fill="#000000">pywinery.elfarch</text>
<text text-anchor="middle" x="825.359" y="140.102" font-family="Verdana" font-size="7.00" fill="#000000">calls: 1</text>
<text text-anchor="middle" x="825.359" y="148.102" font-family="Verdana" font-size="7.00" fill="#000000">time: 0.000070s</text>
</g>
<!-- pywinery.Main.action_prefix_for_path -->
<g id="node4" class="node"><title>pywinery.Main.action_prefix_for_path</title>
<polygon fill="#e2e5e5" stroke="#e2e5e5" points="-197.748,298.341 -347.748,298.341 -347.748,334.341 -197.748,334.341 -197.748,298.341"/>
<text text-anchor="middle" x="-272.748" y="309.941" font-family="Verdana" font-size="7.00" fill="#000000">pywinery.Main.action_prefix_for_path</text>
<text text-anchor="middle" x="-272.748" y="317.941" font-family="Verdana" font-size="7.00" fill="#000000">calls: 1</text>
<text text-anchor="middle" x="-272.748" y="325.941" font-family="Verdana" font-size="7.00" fill="#000000">time: 0.001184s</text>
</g>
<!-- pywinery.is_path_prefix -->
<g id="node23" class="node"><title>pywinery.is_path_prefix</title>
<polygon fill="#dde4e5" stroke="#dde4e5" points="-341.108,404.963 -441.108,404.963 -441.108,440.963 -341.108,440.963 -341.108,404.963"/>
<text text-anchor="middle" x="-391.108" y="416.563" font-family="Verdana" font-size="7.00" fill="#000000">pywinery.is_path_prefix</text>
<text text-anchor="middle" x="-391.108" y="424.563" font-family="Verdana" font-size="7.00" fill="#000000">calls: 3</text>
<text text-anchor="middle" x="-391.108" y="432.563" font-family="Verdana" font-size="7.00" fill="#000000">time: 0.000658s</text>
</g>
<!-- pywinery.Main.action_prefix_for_path&#45;&gt;pywinery.is_path_prefix -->
<g id="edge2" class="edge"><title>pywinery.Main.action_prefix_for_path&#45;&gt;pywinery.is_path_prefix</title>
<path fill="none" stroke="#acb1b2" d="M-292.826,334.428C-312.21,351.89 -341.726,378.478 -363.353,397.961"/>
<polygon fill="#acb1b2" stroke="#acb1b2" points="-361.159,400.695 -370.931,404.788 -365.844,395.494 -361.159,400.695"/>
<text text-anchor="middle" x="-330.59" y="363.795" font-family="Verdana" font-size="7.00" fill="#000000">3</text>
</g>
<!-- pywinery.ResolutionFixer -->
<g id="node5" class="node"><title>pywinery.ResolutionFixer</title>
<polygon fill="#e2e5e5" stroke="#e2e5e5" points="300.9,-415.552 195.9,-415.552 195.9,-379.552 300.9,-379.552 300.9,-415.552"/>
<text text-anchor="middle" x="248.4" y="-403.952" font-family="Verdana" font-size="7.00" fill="#000000">pywinery.ResolutionFixer</text>
<text text-anchor="middle" x="248.4" y="-395.952" font-family="Verdana" font-size="7.00" fill="#000000">calls: 1</text>
<text text-anchor="middle" x="248.4" y="-387.952" font-family="Verdana" font-size="7.00" fill="#000000">time: 0.000021s</text>
</g>
<!-- pywinery.Main.action_load_prefixes -->
<g id="node6" class="node"><title>pywinery.Main.action_load_prefixes</title>
<polygon fill="#e0e5e5" stroke="#e0e5e5" points="671.734,75.1959 527.734,75.1959 527.734,111.196 671.734,111.196 671.734,75.1959"/>
<text text-anchor="middle" x="599.734" y="86.7959" font-family="Verdana" font-size="7.00" fill="#000000">pywinery.Main.action_load_prefixes</text>
<text text-anchor="middle" x="599.734" y="94.7959" font-family="Verdana" font-size="7.00" fill="#000000">calls: 1</text>
<text text-anchor="middle" x="599.734" y="102.796" font-family="Verdana" font-size="7.00" fill="#000000">time: 0.007741s</text>
</g>
<!-- pywinery.Main.action_load_prefixes&#45;&gt;pywinery.type.iter_all -->
<g id="edge3" class="edge"><title>pywinery.Main.action_load_prefixes&#45;&gt;pywinery.type.iter_all</title>
<path fill="none" stroke="#aeb2b2" d="M555.194,75.0778C547.07,71.7732 538.515,68.2932 530.157,64.8932"/>
<polygon fill="#aeb2b2" stroke="#aeb2b2" points="528.781,68.1121 520.837,61.102 531.418,61.628 528.781,68.1121"/>
<text text-anchor="middle" x="540.175" y="67.5855" font-family="Verdana" font-size="7.00" fill="#000000">1</text>
</g>
<!-- pywinery.&lt;genexpr&gt; -->
<g id="node24" class="node"><title>pywinery.&lt;genexpr&gt;</title>
<polygon fill="#e2e5e5" stroke="#e2e5e5" points="622.095,208.917 531.095,208.917 531.095,244.917 622.095,244.917 622.095,208.917"/>
<text text-anchor="middle" x="576.595" y="220.517" font-family="Verdana" font-size="7.00" fill="#000000">pywinery.&lt;genexpr&gt;</text>
<text text-anchor="middle" x="576.595" y="228.517" font-family="Verdana" font-size="7.00" fill="#000000">calls: 1</text>
<text text-anchor="middle" x="576.595" y="236.517" font-family="Verdana" font-size="7.00" fill="#000000">time: 0.000007s</text>
</g>
<!-- pywinery.Main.action_load_prefixes&#45;&gt;pywinery.&lt;genexpr&gt; -->
<g id="edge4" class="edge"><title>pywinery.Main.action_load_prefixes&#45;&gt;pywinery.&lt;genexpr&gt;</title>
<path fill="none" stroke="#b0b2b2" d="M596.613,111.23C592.732,133.661 586.061,172.214 581.495,198.601"/>
<polygon fill="#b0b2b2" stroke="#b0b2b2" points="584.894,199.484 579.74,208.741 577.997,198.291 584.894,199.484"/>
<text text-anchor="middle" x="586.554" y="152.516" font-family="Verdana" font-size="7.00" fill="#000000">1</text>
</g>
<!-- pywinery.Main.handle_commandline -->
<g id="node7" class="node"><title>pywinery.Main.handle_commandline</title>
<polygon fill="#a47ae5" stroke="#a47ae5" points="-75.6542,187.7 -222.654,187.7 -222.654,223.7 -75.6542,223.7 -75.6542,187.7"/>
<text text-anchor="middle" x="-149.154" y="199.3" font-family="Verdana" font-size="7.00" fill="#000000">pywinery.Main.handle_commandline</text>
<text text-anchor="middle" x="-149.154" y="207.3" font-family="Verdana" font-size="7.00" fill="#000000">calls: 1</text>
<text text-anchor="middle" x="-149.154" y="215.3" font-family="Verdana" font-size="7.00" fill="#000000">time: 0.295621s</text>
</g>
<!-- pywinery.Main.handle_commandline&#45;&gt;pywinery.Main.action_prefix_for_path -->
<g id="edge40" class="edge"><title>pywinery.Main.handle_commandline&#45;&gt;pywinery.Main.action_prefix_for_path</title>
<path fill="none" stroke="#b0b2b2" d="M-169.287,223.723C-189.846,242.127 -221.921,270.841 -244.906,291.417"/>
<polygon fill="#b0b2b2" stroke="#b0b2b2" points="-242.839,294.264 -252.624,298.326 -247.507,289.048 -242.839,294.264"/>
<text text-anchor="middle" x="-209.596" y="255.17" font-family="Verdana" font-size="7.00" fill="#000000">1</text>
</g>
<!-- pywinery.Main.current_prefix -->
<g id="node12" class="node"><title>pywinery.Main.current_prefix</title>
<polygon fill="#d8e3e5" stroke="#d8e3e5" points="55.5481,217.724 -64.4519,217.724 -64.4519,253.724 55.5481,253.724 55.5481,217.724"/>
<text text-anchor="middle" x="-4.45194" y="229.324" font-family="Verdana" font-size="7.00" fill="#000000">pywinery.Main.current_prefix</text>
<text text-anchor="middle" x="-4.45194" y="237.324" font-family="Verdana" font-size="7.00" fill="#000000">calls: 5</text>
<text text-anchor="middle" x="-4.45194" y="245.324" font-family="Verdana" font-size="7.00" fill="#000000">time: 0.000029s</text>
</g>
<!-- pywinery.Main.handle_commandline&#45;&gt;pywinery.Main.current_prefix -->
<g id="edge39" class="edge"><title>pywinery.Main.handle_commandline&#45;&gt;pywinery.Main.current_prefix</title>
<path fill="none" stroke="#aeb2b2" d="M-75.5313,220.976C-75.191,221.046 -74.8506,221.117 -74.5104,221.188"/>
<polygon fill="#aeb2b2" stroke="#aeb2b2" points="-73.7695,217.767 -64.6891,223.225 -75.1917,224.621 -73.7695,217.767"/>
<text text-anchor="middle" x="-72.5208" y="218.682" font-family="Verdana" font-size="7.00" fill="#000000">2</text>
</g>
<!-- pywinery.Main.guiStart -->
<g id="node25" class="node"><title>pywinery.Main.guiStart</title>
<polygon fill="#a47be5" stroke="#a47be5" points="11.3257,49.0071 -87.6743,49.0071 -87.6743,85.0071 11.3257,85.0071 11.3257,49.0071"/>
<text text-anchor="middle" x="-38.1743" y="60.6071" font-family="Verdana" font-size="7.00" fill="#000000">pywinery.Main.guiStart</text>
<text text-anchor="middle" x="-38.1743" y="68.6071" font-family="Verdana" font-size="7.00" fill="#000000">calls: 1</text>
<text text-anchor="middle" x="-38.1743" y="76.6071" font-family="Verdana" font-size="7.00" fill="#000000">time: 0.293838s</text>
</g>
<!-- pywinery.Main.handle_commandline&#45;&gt;pywinery.Main.guiStart -->
<g id="edge41" class="edge"><title>pywinery.Main.handle_commandline&#45;&gt;pywinery.Main.guiStart</title>
<path fill="none" stroke="#7f60b2" d="M-134.646,187.568C-115.37,163.48 -81.1893,120.763 -59.1177,93.1803"/>
<polygon fill="#7f60b2" stroke="#7f60b2" points="-61.6672,90.7645 -52.6866,85.1432 -56.2016,95.138 -61.6672,90.7645"/>
<text text-anchor="middle" x="-99.3816" y="137.974" font-family="Verdana" font-size="7.00" fill="#000000">1</text>
</g>
<!-- pywinery.Main.action_prefix_changed -->
<g id="node8" class="node"><title>pywinery.Main.action_prefix_changed</title>
<polygon fill="#e1e5e5" stroke="#e1e5e5" points="163.664,95.7319 11.6645,95.7319 11.6645,131.732 163.664,131.732 163.664,95.7319"/>
<text text-anchor="middle" x="87.6645" y="107.332" font-family="Verdana" font-size="7.00" fill="#000000">pywinery.Main.action_prefix_changed</text>
<text text-anchor="middle" x="87.6645" y="115.332" font-family="Verdana" font-size="7.00" fill="#000000">calls: 1</text>
<text text-anchor="middle" x="87.6645" y="123.332" font-family="Verdana" font-size="7.00" fill="#000000">time: 0.004988s</text>
</g>
<!-- pywinery.Main.action_prefix_changed&#45;&gt;pywinery.Main.current_prefix -->
<g id="edge36" class="edge"><title>pywinery.Main.action_prefix_changed&#45;&gt;pywinery.Main.current_prefix</title>
<path fill="none" stroke="#b0b2b2" d="M74.0724,131.732C58.5611,152.274 33.0544,186.053 15.3377,209.516"/>
<polygon fill="#b0b2b2" stroke="#b0b2b2" points="18.0151,211.778 9.19592,217.65 12.4288,207.56 18.0151,211.778"/>
<text text-anchor="middle" x="42.205" y="168.224" font-family="Verdana" font-size="7.00" fill="#000000">1</text>
</g>
<!-- pywinery.Main.action_gui_executables -->
<g id="node30" class="node"><title>pywinery.Main.action_gui_executables</title>
<polygon fill="#e2e5e5" stroke="#e2e5e5" points="221.666,174.187 66.6657,174.187 66.6657,210.187 221.666,210.187 221.666,174.187"/>
<text text-anchor="middle" x="144.166" y="185.787" font-family="Verdana" font-size="7.00" fill="#000000">pywinery.Main.action_gui_executables</text>
<text text-anchor="middle" x="144.166" y="193.787" font-family="Verdana" font-size="7.00" fill="#000000">calls: 1</text>
<text text-anchor="middle" x="144.166" y="201.787" font-family="Verdana" font-size="7.00" fill="#000000">time: 0.000385s</text>
</g>
<!-- pywinery.Main.action_prefix_changed&#45;&gt;pywinery.Main.action_gui_executables -->
<g id="edge38" class="edge"><title>pywinery.Main.action_prefix_changed&#45;&gt;pywinery.Main.action_gui_executables</title>
<path fill="none" stroke="#b0b2b2" d="M100.769,131.928C108.043,142.028 117.219,154.769 125.257,165.931"/>
<polygon fill="#b0b2b2" stroke="#b0b2b2" points="128.128,163.929 131.132,174.089 122.448,168.02 128.128,163.929"/>
<text text-anchor="middle" x="110.513" y="146.53" font-family="Verdana" font-size="7.00" fill="#000000">1</text>
</g>
<!-- pywinery.Main.__getitem__ -->
<g id="node31" class="node"><title>pywinery.Main.__getitem__</title>
<polygon fill="#9996e5" stroke="#9996e5" points="119.581,-48.1748 6.58066,-48.1748 6.58066,-12.1748 119.581,-12.1748 119.581,-48.1748"/>
<text text-anchor="middle" x="63.0807" y="-36.5748" font-family="Verdana" font-size="7.00" fill="#000000">pywinery.Main.__getitem__</text>
<text text-anchor="middle" x="63.0807" y="-28.5748" font-family="Verdana" font-size="7.00" fill="#000000">calls: 29</text>
<text text-anchor="middle" x="63.0807" y="-20.5748" font-family="Verdana" font-size="7.00" fill="#000000">time: 0.006775s</text>
</g>
<!-- pywinery.Main.action_prefix_changed&#45;&gt;pywinery.Main.__getitem__ -->
<g id="edge37" class="edge"><title>pywinery.Main.action_prefix_changed&#45;&gt;pywinery.Main.__getitem__</title>
<path fill="none" stroke="#a6b0b2" d="M84.5509,95.5061C80.3393,70.8526 72.7878,26.6482 67.8562,-2.21981"/>
<polygon fill="#a6b0b2" stroke="#a6b0b2" points="64.4029,-1.65027 66.1689,-12.0969 71.303,-2.82907 64.4029,-1.65027"/>
<text text-anchor="middle" x="73.7036" y="44.2431" font-family="Verdana" font-size="7.00" fill="#000000">5</text>
</g>
<!-- pywinery._ -->
<g id="node33" class="node"><title>pywinery._</title>
<polygon fill="#dae4e5" stroke="#dae4e5" points="308.59,131.065 233.59,131.065 233.59,167.065 308.59,167.065 308.59,131.065"/>
<text text-anchor="middle" x="271.09" y="142.665" font-family="Verdana" font-size="7.00" fill="#000000">pywinery._</text>
<text text-anchor="middle" x="271.09" y="150.665" font-family="Verdana" font-size="7.00" fill="#000000">calls: 4</text>
<text text-anchor="middle" x="271.09" y="158.665" font-family="Verdana" font-size="7.00" fill="#000000">time: 0.000019s</text>
</g>
<!-- pywinery.Main.action_prefix_changed&#45;&gt;pywinery._ -->
<g id="edge35" class="edge"><title>pywinery.Main.action_prefix_changed&#45;&gt;pywinery._</title>
<path fill="none" stroke="#b0b2b2" d="M163.86,128.409C184.03,132.295 205.232,136.379 223.408,139.88"/>
<polygon fill="#b0b2b2" stroke="#b0b2b2" points="224.291,136.486 233.449,141.814 222.967,143.359 224.291,136.486"/>
<text text-anchor="middle" x="191.134" y="131.745" font-family="Verdana" font-size="7.00" fill="#000000">1</text>
</g>
<!-- pywinery.ExeIconExtractor.__init__ -->
<g id="node10" class="node"><title>pywinery.ExeIconExtractor.__init__</title>
<polygon fill="#d2e0e5" stroke="#d2e0e5" points="901.496,-55.6511 761.496,-55.6511 761.496,-19.6511 901.496,-19.6511 901.496,-55.6511"/>
<text text-anchor="middle" x="831.496" y="-44.0511" font-family="Verdana" font-size="7.00" fill="#000000">pywinery.ExeIconExtractor.__init__</text>
<text text-anchor="middle" x="831.496" y="-36.0511" font-family="Verdana" font-size="7.00" fill="#000000">calls: 1</text>
<text text-anchor="middle" x="831.496" y="-28.0511" font-family="Verdana" font-size="7.00" fill="#000000">time: 0.047158s</text>
</g>
<!-- pywinery.getBin -->
<g id="node14" class="node"><title>pywinery.getBin</title>
<polygon fill="#d5e2e5" stroke="#d5e2e5" points="777.794,-110.158 702.794,-110.158 702.794,-74.1577 777.794,-74.1577 777.794,-110.158"/>
<text text-anchor="middle" x="740.294" y="-98.5577" font-family="Verdana" font-size="7.00" fill="#000000">pywinery.getBin</text>
<text text-anchor="middle" x="740.294" y="-90.5577" font-family="Verdana" font-size="7.00" fill="#000000">calls: 3</text>
<text text-anchor="middle" x="740.294" y="-82.5577" font-family="Verdana" font-size="7.00" fill="#000000">time: 0.022531s</text>
</g>
<!-- pywinery.ExeIconExtractor.__init__&#45;&gt;pywinery.getBin -->
<g id="edge27" class="edge"><title>pywinery.ExeIconExtractor.__init__&#45;&gt;pywinery.getBin</title>
<path fill="none" stroke="#aab1b2" d="M801.127,-55.801C794.204,-59.9383 786.753,-64.3917 779.519,-68.7147"/>
<polygon fill="#aab1b2" stroke="#aab1b2" points="777.318,-65.9526 770.53,-74.0871 780.91,-71.9613 777.318,-65.9526"/>
<text text-anchor="middle" x="787.823" y="-64.6579" font-family="Verdana" font-size="7.00" fill="#000000">1</text>
</g>
<!-- pywinery.Main.aux_separator_func -->
<g id="node11" class="node"><title>pywinery.Main.aux_separator_func</title>
<polygon fill="#d0dfe5" stroke="#d0dfe5" points="-115.151,-51.7874 -255.151,-51.7874 -255.151,-15.7874 -115.151,-15.7874 -115.151,-51.7874"/>
<text text-anchor="middle" x="-185.151" y="-40.1874" font-family="Verdana" font-size="7.00" fill="#000000">pywinery.Main.aux_separator_func</text>
<text text-anchor="middle" x="-185.151" y="-32.1874" font-family="Verdana" font-size="7.00" fill="#000000">calls: 8</text>
<text text-anchor="middle" x="-185.151" y="-24.1874" font-family="Verdana" font-size="7.00" fill="#000000">time: 0.000194s</text>
</g>
<!-- pywinery.ExeInfoExtractor -->
<g id="node13" class="node"><title>pywinery.ExeInfoExtractor</title>
<polygon fill="#e2e5e5" stroke="#e2e5e5" points="732.197,-519.722 622.197,-519.722 622.197,-483.722 732.197,-483.722 732.197,-519.722"/>
<text text-anchor="middle" x="677.197" y="-508.122" font-family="Verdana" font-size="7.00" fill="#000000">pywinery.ExeInfoExtractor</text>
<text text-anchor="middle" x="677.197" y="-500.122" font-family="Verdana" font-size="7.00" fill="#000000">calls: 1</text>
<text text-anchor="middle" x="677.197" y="-492.122" font-family="Verdana" font-size="7.00" fill="#000000">time: 0.000019s</text>
</g>
<!-- pywinery.BrokenPrefix -->
<g id="node15" class="node"><title>pywinery.BrokenPrefix</title>
<polygon fill="#e2e5e5" stroke="#e2e5e5" points="520.291,-182.77 425.291,-182.77 425.291,-146.77 520.291,-146.77 520.291,-182.77"/>
<text text-anchor="middle" x="472.791" y="-171.17" font-family="Verdana" font-size="7.00" fill="#000000">pywinery.BrokenPrefix</text>
<text text-anchor="middle" x="472.791" y="-163.17" font-family="Verdana" font-size="7.00" fill="#000000">calls: 1</text>
<text text-anchor="middle" x="472.791" y="-155.17" font-family="Verdana" font-size="7.00" fill="#000000">time: 0.000081s</text>
</g>
<!-- pywinery.IconData -->
<g id="node16" class="node"><title>pywinery.IconData</title>
<polygon fill="#e2e5e5" stroke="#e2e5e5" points="524.12,-641.396 441.12,-641.396 441.12,-605.396 524.12,-605.396 524.12,-641.396"/>
<text text-anchor="middle" x="482.62" y="-629.796" font-family="Verdana" font-size="7.00" fill="#000000">pywinery.IconData</text>
<text text-anchor="middle" x="482.62" y="-621.796" font-family="Verdana" font-size="7.00" fill="#000000">calls: 1</text>
<text text-anchor="middle" x="482.62" y="-613.796" font-family="Verdana" font-size="7.00" fill="#000000">time: 0.000023s</text>
</g>
<!-- pywinery.ProgressDialog -->
<g id="node17" class="node"><title>pywinery.ProgressDialog</title>
<polygon fill="#e2e5e5" stroke="#e2e5e5" points="647.419,-603.617 543.419,-603.617 543.419,-567.617 647.419,-567.617 647.419,-603.617"/>
<text text-anchor="middle" x="595.419" y="-592.017" font-family="Verdana" font-size="7.00" fill="#000000">pywinery.ProgressDialog</text>
<text text-anchor="middle" x="595.419" y="-584.017" font-family="Verdana" font-size="7.00" fill="#000000">calls: 1</text>
<text text-anchor="middle" x="595.419" y="-576.017" font-family="Verdana" font-size="7.00" fill="#000000">time: 0.000021s</text>
</g>
<!-- pywinery.Main -->
<g id="node18" class="node"><title>pywinery.Main</title>
<polygon fill="#e2e5e5" stroke="#e2e5e5" points="409.739,-604.622 334.739,-604.622 334.739,-568.622 409.739,-568.622 409.739,-604.622"/>
<text text-anchor="middle" x="372.239" y="-593.022" font-family="Verdana" font-size="7.00" fill="#000000">pywinery.Main</text>
<text text-anchor="middle" x="372.239" y="-585.022" font-family="Verdana" font-size="7.00" fill="#000000">calls: 1</text>
<text text-anchor="middle" x="372.239" y="-577.022" font-family="Verdana" font-size="7.00" fill="#000000">time: 0.000112s</text>
</g>
<!-- pywinery.ExeIconExtractor -->
<g id="node19" class="node"><title>pywinery.ExeIconExtractor</title>
<polygon fill="#e2e5e5" stroke="#e2e5e5" points="413.203,-215.393 301.203,-215.393 301.203,-179.393 413.203,-179.393 413.203,-215.393"/>
<text text-anchor="middle" x="357.203" y="-203.793" font-family="Verdana" font-size="7.00" fill="#000000">pywinery.ExeIconExtractor</text>
<text text-anchor="middle" x="357.203" y="-195.793" font-family="Verdana" font-size="7.00" fill="#000000">calls: 1</text>
<text text-anchor="middle" x="357.203" y="-187.793" font-family="Verdana" font-size="7.00" fill="#000000">time: 0.000023s</text>
</g>
<!-- pywinery.Prefix -->
<g id="node20" class="node"><title>pywinery.Prefix</title>
<polygon fill="#e2e5e5" stroke="#e2e5e5" points="711.09,-290.867 636.09,-290.867 636.09,-254.867 711.09,-254.867 711.09,-290.867"/>
<text text-anchor="middle" x="673.59" y="-279.267" font-family="Verdana" font-size="7.00" fill="#000000">pywinery.Prefix</text>
<text text-anchor="middle" x="673.59" y="-271.267" font-family="Verdana" font-size="7.00" fill="#000000">calls: 1</text>
<text text-anchor="middle" x="673.59" y="-263.267" font-family="Verdana" font-size="7.00" fill="#000000">time: 0.000944s</text>
</g>
<!-- pywinery.TaskController -->
<g id="node21" class="node"><title>pywinery.TaskController</title>
<polygon fill="#e2e5e5" stroke="#e2e5e5" points="335.664,-305.905 234.664,-305.905 234.664,-269.905 335.664,-269.905 335.664,-305.905"/>
<text text-anchor="middle" x="285.164" y="-294.305" font-family="Verdana" font-size="7.00" fill="#000000">pywinery.TaskController</text>
<text text-anchor="middle" x="285.164" y="-286.305" font-family="Verdana" font-size="7.00" fill="#000000">calls: 1</text>
<text text-anchor="middle" x="285.164" y="-278.305" font-family="Verdana" font-size="7.00" fill="#000000">time: 0.000065s</text>
</g>
<!-- pywinery.Main.handle_config_response -->
<g id="node22" class="node"><title>pywinery.Main.handle_config_response</title>
<polygon fill="#e1e5e5" stroke="#e1e5e5" points="105.098,-394.061 -51.9018,-394.061 -51.9018,-358.061 105.098,-358.061 105.098,-394.061"/>
<text text-anchor="middle" x="26.5982" y="-382.461" font-family="Verdana" font-size="7.00" fill="#000000">pywinery.Main.handle_config_response</text>
<text text-anchor="middle" x="26.5982" y="-374.461" font-family="Verdana" font-size="7.00" fill="#000000">calls: 1</text>
<text text-anchor="middle" x="26.5982" y="-366.461" font-family="Verdana" font-size="7.00" fill="#000000">time: 0.003028s</text>
</g>
<!-- pywinery.Main.quit -->
<g id="node28" class="node"><title>pywinery.Main.quit</title>
<polygon fill="#e1e5e5" stroke="#e1e5e5" points="89.9546,-229.192 6.95455,-229.192 6.95455,-193.192 89.9546,-193.192 89.9546,-229.192"/>
<text text-anchor="middle" x="48.4546" y="-217.592" font-family="Verdana" font-size="7.00" fill="#000000">pywinery.Main.quit</text>
<text text-anchor="middle" x="48.4546" y="-209.592" font-family="Verdana" font-size="7.00" fill="#000000">calls: 1</text>
<text text-anchor="middle" x="48.4546" y="-201.592" font-family="Verdana" font-size="7.00" fill="#000000">time: 0.002900s</text>
</g>
<!-- pywinery.Main.handle_config_response&#45;&gt;pywinery.Main.quit -->
<g id="edge31" class="edge"><title>pywinery.Main.handle_config_response&#45;&gt;pywinery.Main.quit</title>
<path fill="none" stroke="#afb2b2" d="M29.0207,-357.787C32.8217,-329.115 40.2154,-273.342 44.7066,-239.464"/>
<polygon fill="#afb2b2" stroke="#afb2b2" points="48.2099,-239.669 46.0545,-229.296 41.2706,-238.749 48.2099,-239.669"/>
<text text-anchor="middle" x="34.3636" y="-301.026" font-family="Verdana" font-size="7.00" fill="#000000">1</text>
</g>
<!-- pywinery.Main.guiStart&#45;&gt;pywinery.Main.action_prefix_changed -->
<g id="edge9" class="edge"><title>pywinery.Main.guiStart&#45;&gt;pywinery.Main.action_prefix_changed</title>
<path fill="none" stroke="#afb2b2" d="M10.4782,85.0721C16.6509,87.3641 23.017,89.7279 29.3216,92.0688"/>
<polygon fill="#afb2b2" stroke="#afb2b2" points="30.985,88.9529 39.1413,95.7149 28.5483,95.5151 30.985,88.9529"/>
<text text-anchor="middle" x="17.3999" y="86.1705" font-family="Verdana" font-size="7.00" fill="#000000">1</text>
</g>
<!-- pywinery.Main.guiStart&#45;&gt;pywinery.Main.aux_separator_func -->
<g id="edge5" class="edge"><title>pywinery.Main.guiStart&#45;&gt;pywinery.Main.aux_separator_func</title>
<path fill="none" stroke="#aeb2b2" d="M-64.4509,48.987C-88.3381,32.6056 -123.766,8.30951 -150.067,-9.72715"/>
<polygon fill="#aeb2b2" stroke="#aeb2b2" points="-152.339,-7.04132 -158.607,-15.5835 -148.38,-12.8142 -152.339,-7.04132"/>
<text text-anchor="middle" x="-109.759" y="17.2299" font-family="Verdana" font-size="7.00" fill="#000000">2</text>
</g>
<!-- pywinery.Main.guiStart&#45;&gt;pywinery.Main.current_prefix -->
<g id="edge6" class="edge"><title>pywinery.Main.guiStart&#45;&gt;pywinery.Main.current_prefix</title>
<path fill="none" stroke="#b0b2b2" d="M-34.5655,85.0627C-28.6987,114.415 -17.0496,172.696 -10.0852,207.54"/>
<polygon fill="#b0b2b2" stroke="#b0b2b2" points="-6.6138,207.051 -8.08585,217.543 -13.478,208.423 -6.6138,207.051"/>
<text text-anchor="middle" x="-24.8253" y="143.901" font-family="Verdana" font-size="7.00" fill="#000000">1</text>
</g>
<!-- pywinery.Main.guiStart&#45;&gt;pywinery.Main.__getitem__ -->
<g id="edge8" class="edge"><title>pywinery.Main.guiStart&#45;&gt;pywinery.Main.__getitem__</title>
<path fill="none" stroke="#93a2b2" d="M-19.1291,48.7279C-3.43054,33.6609 19.0133,12.1199 36.4851,-4.64911"/>
<polygon fill="#93a2b2" stroke="#93a2b2" points="34.4825,-7.57823 44.1208,-11.9776 39.3296,-2.52793 34.4825,-7.57823"/>
<text text-anchor="middle" x="3.67805" y="19.6394" font-family="Verdana" font-size="7.00" fill="#000000">14</text>
</g>
<!-- pywinery.Main.guiPrefix -->
<g id="node35" class="node"><title>pywinery.Main.guiPrefix</title>
<polygon fill="#e2e5e5" stroke="#e2e5e5" points="228.581,-12.1355 127.581,-12.1355 127.581,23.8645 228.581,23.8645 228.581,-12.1355"/>
<text text-anchor="middle" x="178.081" y="-0.535515" font-family="Verdana" font-size="7.00" fill="#000000">pywinery.Main.guiPrefix</text>
<text text-anchor="middle" x="178.081" y="7.46449" font-family="Verdana" font-size="7.00" fill="#000000">calls: 1</text>
<text text-anchor="middle" x="178.081" y="15.4645" font-family="Verdana" font-size="7.00" fill="#000000">time: 0.002394s</text>
</g>
<!-- pywinery.Main.guiStart&#45;&gt;pywinery.Main.guiPrefix -->
<g id="edge7" class="edge"><title>pywinery.Main.guiStart&#45;&gt;pywinery.Main.guiPrefix</title>
<path fill="none" stroke="#afb2b2" d="M11.4389,52.9797C43.1042,44.0269 84.3504,32.3652 117.885,22.8839"/>
<polygon fill="#afb2b2" stroke="#afb2b2" points="116.999,19.4973 127.574,20.1445 118.903,26.2333 116.999,19.4973"/>
<text text-anchor="middle" x="62.1619" y="35.5318" font-family="Verdana" font-size="7.00" fill="#000000">1</text>
</g>
<!-- pywinery.Main.__init__ -->
<g id="node26" class="node"><title>pywinery.Main.__init__</title>
<polygon fill="#c7d9e5" stroke="#c7d9e5" points="776.299,23.0342 680.299,23.0342 680.299,59.0342 776.299,59.0342 776.299,23.0342"/>
<text text-anchor="middle" x="728.299" y="34.6342" font-family="Verdana" font-size="7.00" fill="#000000">pywinery.Main.__init__</text>
<text text-anchor="middle" x="728.299" y="42.6342" font-family="Verdana" font-size="7.00" fill="#000000">calls: 1</text>
<text text-anchor="middle" x="728.299" y="50.6342" font-family="Verdana" font-size="7.00" fill="#000000">time: 0.077328s</text>
</g>
<!-- pywinery.Main.__init__&#45;&gt;pywinery.elfarch -->
<g id="edge10" class="edge"><title>pywinery.Main.__init__&#45;&gt;pywinery.elfarch</title>
<path fill="none" stroke="#b0b2b2" d="M746.555,59.3671C761.603,74.4783 783.117,96.0826 799.865,112.901"/>
<polygon fill="#b0b2b2" stroke="#b0b2b2" points="802.608,110.695 807.184,120.251 797.648,115.635 802.608,110.695"/>
<text text-anchor="middle" x="770.71" y="83.734" font-family="Verdana" font-size="7.00" fill="#000000">1</text>
</g>
<!-- pywinery.Main.__init__&#45;&gt;pywinery.Main.action_load_prefixes -->
<g id="edge12" class="edge"><title>pywinery.Main.__init__&#45;&gt;pywinery.Main.action_load_prefixes</title>
<path fill="none" stroke="#aeb2b2" d="M683.694,59.1314C674.021,63.056 663.69,67.2474 653.701,71.3004"/>
<polygon fill="#aeb2b2" stroke="#aeb2b2" points="654.842,74.6142 644.26,75.1306 652.211,68.1278 654.842,74.6142"/>
<text text-anchor="middle" x="666.197" y="62.8159" font-family="Verdana" font-size="7.00" fill="#000000">1</text>
</g>
<!-- pywinery.Main.__init__&#45;&gt;pywinery.ExeIconExtractor.__init__ -->
<g id="edge11" class="edge"><title>pywinery.Main.__init__&#45;&gt;pywinery.ExeIconExtractor.__init__</title>
<path fill="none" stroke="#a3aeb2" d="M751.974,22.9822C766.033,12.263 784.048,-1.47361 799.376,-13.1608"/>
<polygon fill="#a3aeb2" stroke="#a3aeb2" points="797.499,-16.1305 807.573,-19.4106 801.743,-10.564 797.499,-16.1305"/>
<text text-anchor="middle" x="773.175" y="2.51072" font-family="Verdana" font-size="7.00" fill="#000000">1</text>
</g>
<!-- pywinery.Main.__init__&#45;&gt;pywinery.getBin -->
<g id="edge13" class="edge"><title>pywinery.Main.__init__&#45;&gt;pywinery.getBin</title>
<path fill="none" stroke="#a8b0b2" d="M729.942,22.7937C731.96,0.376304 735.408,-37.9016 737.765,-64.0795"/>
<polygon fill="#a8b0b2" stroke="#a8b0b2" points="734.288,-64.4918 738.671,-74.1375 741.26,-63.8639 734.288,-64.4918"/>
<text text-anchor="middle" x="731.353" y="-23.0429" font-family="Verdana" font-size="7.00" fill="#000000">2</text>
</g>
<!-- pywinery.&lt;module&gt; -->
<g id="node27" class="node"><title>pywinery.&lt;module&gt;</title>
<polygon fill="#e549e0" stroke="#e549e0" points="522.815,-411.055 433.815,-411.055 433.815,-375.055 522.815,-375.055 522.815,-411.055"/>
<text text-anchor="middle" x="478.315" y="-399.455" font-family="Verdana" font-size="7.00" fill="#000000">pywinery.&lt;module&gt;</text>
<text text-anchor="middle" x="478.315" y="-391.455" font-family="Verdana" font-size="7.00" fill="#000000">calls: 1</text>
<text text-anchor="middle" x="478.315" y="-383.455" font-family="Verdana" font-size="7.00" fill="#000000">time: 0.434687s</text>
</g>
<!-- pywinery.&lt;module&gt;&#45;&gt;pywinery.ResolutionFixer -->
<g id="edge25" class="edge"><title>pywinery.&lt;module&gt;&#45;&gt;pywinery.ResolutionFixer</title>
<path fill="none" stroke="#b0b2b2" d="M433.712,-393.927C398.829,-394.609 349.902,-395.567 311.081,-396.326"/>
<polygon fill="#b0b2b2" stroke="#b0b2b2" points="310.863,-392.83 300.933,-396.525 311,-399.828 310.863,-392.83"/>
<text text-anchor="middle" x="369.897" y="-397.527" font-family="Verdana" font-size="7.00" fill="#000000">1</text>
</g>
<!-- pywinery.&lt;module&gt;&#45;&gt;pywinery.ExeInfoExtractor -->
<g id="edge17" class="edge"><title>pywinery.&lt;module&gt;&#45;&gt;pywinery.ExeInfoExtractor</title>
<path fill="none" stroke="#b0b2b2" d="M511.603,-411.243C545.549,-429.791 598.319,-458.624 635.136,-478.74"/>
<polygon fill="#b0b2b2" stroke="#b0b2b2" points="633.678,-481.932 644.131,-483.655 637.034,-475.789 633.678,-481.932"/>
<text text-anchor="middle" x="570.87" y="-447.392" font-family="Verdana" font-size="7.00" fill="#000000">1</text>
</g>
<!-- pywinery.&lt;module&gt;&#45;&gt;pywinery.BrokenPrefix -->
<g id="edge18" class="edge"><title>pywinery.&lt;module&gt;&#45;&gt;pywinery.BrokenPrefix</title>
<path fill="none" stroke="#b0b2b2" d="M477.872,-374.759C476.91,-335.005 474.624,-240.511 473.475,-193.028"/>
<polygon fill="#b0b2b2" stroke="#b0b2b2" points="476.969,-192.748 473.228,-182.836 469.971,-192.918 476.969,-192.748"/>
<text text-anchor="middle" x="473.174" y="-286.293" font-family="Verdana" font-size="7.00" fill="#000000">1</text>
</g>
<!-- pywinery.&lt;module&gt;&#45;&gt;pywinery.IconData -->
<g id="edge19" class="edge"><title>pywinery.&lt;module&gt;&#45;&gt;pywinery.IconData</title>
<path fill="none" stroke="#b0b2b2" d="M478.653,-411.129C479.399,-451.062 481.193,-547.058 482.09,-595.064"/>
<polygon fill="#b0b2b2" stroke="#b0b2b2" points="478.591,-595.154 482.278,-605.087 485.59,-595.023 478.591,-595.154"/>
<text text-anchor="middle" x="477.871" y="-505.496" font-family="Verdana" font-size="7.00" fill="#000000">1</text>
</g>
<!-- pywinery.&lt;module&gt;&#45;&gt;pywinery.ProgressDialog -->
<g id="edge20" class="edge"><title>pywinery.&lt;module&gt;&#45;&gt;pywinery.ProgressDialog</title>
<path fill="none" stroke="#b0b2b2" d="M489.332,-411.17C510.038,-445.219 554.852,-518.91 579.08,-558.75"/>
<polygon fill="#b0b2b2" stroke="#b0b2b2" points="576.16,-560.683 584.346,-567.409 582.141,-557.046 576.16,-560.683"/>
<text text-anchor="middle" x="531.706" y="-487.36" font-family="Verdana" font-size="7.00" fill="#000000">1</text>
</g>
<!-- pywinery.&lt;module&gt;&#45;&gt;pywinery.Main -->
<g id="edge21" class="edge"><title>pywinery.&lt;module&gt;&#45;&gt;pywinery.Main</title>
<path fill="none" stroke="#b0b2b2" d="M468.335,-411.265C449.571,-445.506 408.949,-519.633 387.01,-559.668"/>
<polygon fill="#b0b2b2" stroke="#b0b2b2" points="383.851,-558.15 382.114,-568.601 389.99,-561.514 383.851,-558.15"/>
<text text-anchor="middle" x="425.173" y="-487.866" font-family="Verdana" font-size="7.00" fill="#000000">1</text>
</g>
<!-- pywinery.&lt;module&gt;&#45;&gt;pywinery.ExeIconExtractor -->
<g id="edge23" class="edge"><title>pywinery.&lt;module&gt;&#45;&gt;pywinery.ExeIconExtractor</title>
<path fill="none" stroke="#b0b2b2" d="M467.138,-374.998C445.688,-340.344 398.662,-264.371 373.633,-223.937"/>
<polygon fill="#b0b2b2" stroke="#b0b2b2" points="376.592,-222.067 368.353,-215.406 370.64,-225.751 376.592,-222.067"/>
<text text-anchor="middle" x="417.886" y="-301.867" font-family="Verdana" font-size="7.00" fill="#000000">1</text>
</g>
<!-- pywinery.&lt;module&gt;&#45;&gt;pywinery.Prefix -->
<g id="edge24" class="edge"><title>pywinery.&lt;module&gt;&#45;&gt;pywinery.Prefix</title>
<path fill="none" stroke="#b0b2b2" d="M507.973,-374.801C542.149,-353.766 598.386,-319.154 635.703,-296.186"/>
<polygon fill="#b0b2b2" stroke="#b0b2b2" points="637.611,-299.122 644.292,-290.899 633.942,-293.16 637.611,-299.122"/>
<text text-anchor="middle" x="569.338" y="-337.893" font-family="Verdana" font-size="7.00" fill="#000000">1</text>
</g>
<!-- pywinery.&lt;module&gt;&#45;&gt;pywinery.TaskController -->
<g id="edge14" class="edge"><title>pywinery.&lt;module&gt;&#45;&gt;pywinery.TaskController</title>
<path fill="none" stroke="#b0b2b2" d="M445.111,-374.979C412.536,-357.245 362.738,-330.136 327.37,-310.882"/>
<polygon fill="#b0b2b2" stroke="#b0b2b2" points="328.713,-307.628 318.257,-305.92 325.366,-313.776 328.713,-307.628"/>
<text text-anchor="middle" x="383.741" y="-345.33" font-family="Verdana" font-size="7.00" fill="#000000">1</text>
</g>
<!-- pywinery.NoWineException -->
<g id="node29" class="node"><title>pywinery.NoWineException</title>
<polygon fill="#e2e5e5" stroke="#e2e5e5" points="640.291,-215.719 528.291,-215.719 528.291,-179.719 640.291,-179.719 640.291,-215.719"/>
<text text-anchor="middle" x="584.291" y="-204.119" font-family="Verdana" font-size="7.00" fill="#000000">pywinery.NoWineException</text>
<text text-anchor="middle" x="584.291" y="-196.119" font-family="Verdana" font-size="7.00" fill="#000000">calls: 1</text>
<text text-anchor="middle" x="584.291" y="-188.119" font-family="Verdana" font-size="7.00" fill="#000000">time: 0.000012s</text>
</g>
<!-- pywinery.&lt;module&gt;&#45;&gt;pywinery.NoWineException -->
<g id="edge15" class="edge"><title>pywinery.&lt;module&gt;&#45;&gt;pywinery.NoWineException</title>
<path fill="none" stroke="#b0b2b2" d="M488.095,-375.028C506.777,-340.593 547.633,-265.287 569.608,-224.782"/>
<polygon fill="#b0b2b2" stroke="#b0b2b2" points="572.688,-226.445 574.381,-215.986 566.536,-223.107 572.688,-226.445"/>
<text text-anchor="middle" x="526.352" y="-302.305" font-family="Verdana" font-size="7.00" fill="#000000">1</text>
</g>
<!-- pywinery.Tray -->
<g id="node34" class="node"><title>pywinery.Tray</title>
<polygon fill="#e2e5e5" stroke="#e2e5e5" points="320.347,-530.874 245.347,-530.874 245.347,-494.874 320.347,-494.874 320.347,-530.874"/>
<text text-anchor="middle" x="282.847" y="-519.274" font-family="Verdana" font-size="7.00" fill="#000000">pywinery.Tray</text>
<text text-anchor="middle" x="282.847" y="-511.274" font-family="Verdana" font-size="7.00" fill="#000000">calls: 1</text>
<text text-anchor="middle" x="282.847" y="-503.274" font-family="Verdana" font-size="7.00" fill="#000000">time: 0.000012s</text>
</g>
<!-- pywinery.&lt;module&gt;&#45;&gt;pywinery.Tray -->
<g id="edge16" class="edge"><title>pywinery.&lt;module&gt;&#45;&gt;pywinery.Tray</title>
<path fill="none" stroke="#b0b2b2" d="M448.627,-411.253C414.516,-432.162 358.45,-466.53 321.095,-489.428"/>
<polygon fill="#b0b2b2" stroke="#b0b2b2" points="319.189,-486.491 312.493,-494.701 322.848,-492.459 319.189,-486.491"/>
<text text-anchor="middle" x="382.361" y="-452.74" font-family="Verdana" font-size="7.00" fill="#000000">1</text>
</g>
<!-- pywinery.CallbackList -->
<g id="node37" class="node"><title>pywinery.CallbackList</title>
<polygon fill="#e2e5e5" stroke="#e2e5e5" points="750.924,-405.508 656.924,-405.508 656.924,-369.508 750.924,-369.508 750.924,-405.508"/>
<text text-anchor="middle" x="703.924" y="-393.908" font-family="Verdana" font-size="7.00" fill="#000000">pywinery.CallbackList</text>
<text text-anchor="middle" x="703.924" y="-385.908" font-family="Verdana" font-size="7.00" fill="#000000">calls: 1</text>
<text text-anchor="middle" x="703.924" y="-377.908" font-family="Verdana" font-size="7.00" fill="#000000">time: 0.000022s</text>
</g>
<!-- pywinery.&lt;module&gt;&#45;&gt;pywinery.CallbackList -->
<g id="edge22" class="edge"><title>pywinery.&lt;module&gt;&#45;&gt;pywinery.CallbackList</title>
<path fill="none" stroke="#b0b2b2" d="M522.888,-391.959C558.371,-391.087 608.281,-389.86 646.712,-388.915"/>
<polygon fill="#b0b2b2" stroke="#b0b2b2" points="646.811,-392.414 656.722,-388.669 646.639,-385.416 646.811,-392.414"/>
<text text-anchor="middle" x="582.3" y="-392.837" font-family="Verdana" font-size="7.00" fill="#000000">1</text>
</g>
<!-- pywinery.Main.quit&#45;&gt;pywinery.Main.__getitem__ -->
<g id="edge26" class="edge"><title>pywinery.Main.quit&#45;&gt;pywinery.Main.__getitem__</title>
<path fill="none" stroke="#acb1b2" d="M49.9104,-193.173C52.4555,-161.675 57.732,-96.3719 60.7772,-58.6835"/>
<polygon fill="#acb1b2" stroke="#acb1b2" points="64.2921,-58.6384 61.609,-48.3889 57.3149,-58.0745 64.2921,-58.6384"/>
<text text-anchor="middle" x="52.8438" y="-128.328" font-family="Verdana" font-size="7.00" fill="#000000">2</text>
</g>
<!-- pywinery.Main.action_gui_executables&#45;&gt;pywinery.Main.current_prefix -->
<g id="edge29" class="edge"><title>pywinery.Main.action_gui_executables&#45;&gt;pywinery.Main.current_prefix</title>
<path fill="none" stroke="#b0b2b2" d="M82.4296,210.272C76.9467,211.879 71.3698,213.512 65.8229,215.137"/>
<polygon fill="#b0b2b2" stroke="#b0b2b2" points="66.4785,218.592 55.8978,218.045 64.5105,211.874 66.4785,218.592"/>
<text text-anchor="middle" x="71.6262" y="218.305" font-family="Verdana" font-size="7.00" fill="#000000">1</text>
</g>
<!-- pywinery.Main.action_gui_executables&#45;&gt;pywinery.Main.__getitem__ -->
<g id="edge30" class="edge"><title>pywinery.Main.action_gui_executables&#45;&gt;pywinery.Main.__getitem__</title>
<path fill="none" stroke="#a2aeb2" d="M137.53,173.99C123.359,135.129 90.0616,43.8157 73.2181,-2.37471"/>
<polygon fill="#a2aeb2" stroke="#a2aeb2" points="69.8319,-1.44445 69.6942,-12.0384 76.4083,-3.8426 69.8319,-1.44445"/>
<text text-anchor="middle" x="102.874" y="83.4078" font-family="Verdana" font-size="7.00" fill="#000000">7</text>
</g>
<!-- pywinery.Main.action_gui_executables&#45;&gt;pywinery._ -->
<g id="edge28" class="edge"><title>pywinery.Main.action_gui_executables&#45;&gt;pywinery._</title>
<path fill="none" stroke="#b0b2b2" d="M197.258,174.149C206.043,171.164 215.101,168.087 223.733,165.154"/>
<polygon fill="#b0b2b2" stroke="#b0b2b2" points="222.666,161.82 233.261,161.917 224.918,168.448 222.666,161.82"/>
<text text-anchor="middle" x="207.995" y="167.252" font-family="Verdana" font-size="7.00" fill="#000000">1</text>
</g>
<!-- pywinery.Main._app_quit -->
<g id="node32" class="node"><title>pywinery.Main._app_quit</title>
<polygon fill="#e2e5e5" stroke="#e2e5e5" points="251,-232 147,-232 147,-196 251,-196 251,-232"/>
<text text-anchor="middle" x="199" y="-220.4" font-family="Verdana" font-size="7.00" fill="#000000">pywinery.Main._app_quit</text>
<text text-anchor="middle" x="199" y="-212.4" font-family="Verdana" font-size="7.00" fill="#000000">calls: 1</text>
<text text-anchor="middle" x="199" y="-204.4" font-family="Verdana" font-size="7.00" fill="#000000">time: 0.000174s</text>
</g>
<!-- pywinery.Main.guiPrefix&#45;&gt;pywinery.Main.__getitem__ -->
<g id="edge33" class="edge"><title>pywinery.Main.guiPrefix&#45;&gt;pywinery.Main.__getitem__</title>
<path fill="none" stroke="#aeb2b2" d="M127.305,-10.0478C127.147,-10.0973 126.989,-10.1468 126.831,-10.1963"/>
<polygon fill="#aeb2b2" stroke="#aeb2b2" points="128.187,-6.10356 119.691,-12.4339 130.28,-12.7832 128.187,-6.10356"/>
<text text-anchor="middle" x="124.568" y="-12.522" font-family="Verdana" font-size="7.00" fill="#000000">1</text>
</g>
<!-- pywinery.Main.guiPrefix&#45;&gt;pywinery._ -->
<g id="edge34" class="edge"><title>pywinery.Main.guiPrefix&#45;&gt;pywinery._</title>
<path fill="none" stroke="#aeb2b2" d="M189.86,24.0009C205.916,48.7203 234.8,93.1923 253.447,121.901"/>
<polygon fill="#aeb2b2" stroke="#aeb2b2" points="256.6,120.33 259.112,130.623 250.73,124.143 256.6,120.33"/>
<text text-anchor="middle" x="219.154" y="70.551" font-family="Verdana" font-size="7.00" fill="#000000">2</text>
</g>
<!-- pywinery.&lt;listcomp&gt; -->
<g id="node36" class="node"><title>pywinery.&lt;listcomp&gt;</title>
<polygon fill="#e2e5e5" stroke="#e2e5e5" points="380.154,-95.3686 287.154,-95.3686 287.154,-59.3686 380.154,-59.3686 380.154,-95.3686"/>
<text text-anchor="middle" x="333.654" y="-83.7686" font-family="Verdana" font-size="7.00" fill="#000000">pywinery.&lt;listcomp&gt;</text>
<text text-anchor="middle" x="333.654" y="-75.7686" font-family="Verdana" font-size="7.00" fill="#000000">calls: 1</text>
<text text-anchor="middle" x="333.654" y="-67.7686" font-family="Verdana" font-size="7.00" fill="#000000">time: 0.000006s</text>
</g>
<!-- pywinery.Main.guiPrefix&#45;&gt;pywinery.&lt;listcomp&gt; -->
<g id="edge32" class="edge"><title>pywinery.Main.guiPrefix&#45;&gt;pywinery.&lt;listcomp&gt;</title>
<path fill="none" stroke="#b0b2b2" d="M211.838,-12.1958C235.078,-24.6298 266.138,-41.2469 291.077,-54.5897"/>
<polygon fill="#b0b2b2" stroke="#b0b2b2" points="289.494,-57.7121 299.962,-59.3435 292.796,-51.54 289.494,-57.7121"/>
<text text-anchor="middle" x="248.957" y="-35.7928" font-family="Verdana" font-size="7.00" fill="#000000">1</text>
</g>
<!-- pywinery.Main.handle_delete -->
<g id="node38" class="node"><title>pywinery.Main.handle_delete</title>
<polygon fill="#e2e5e5" stroke="#e2e5e5" points="-75.5,-232 -196.5,-232 -196.5,-196 -75.5,-196 -75.5,-232"/>
<text text-anchor="middle" x="-136" y="-220.4" font-family="Verdana" font-size="7.00" fill="#000000">pywinery.Main.handle_delete</text>
<text text-anchor="middle" x="-136" y="-212.4" font-family="Verdana" font-size="7.00" fill="#000000">calls: 1</text>
<text text-anchor="middle" x="-136" y="-204.4" font-family="Verdana" font-size="7.00" fill="#000000">time: 0.000053s</text>
</g>
</g>
</svg>
